<svg xmlns="http://www.w3.org/2000/svg" width="155" height="155" viewBox="0 0 155 155" fill="none">
  <path fill-rule="evenodd" clip-rule="evenodd" d="M13.879 62.4361C20.565 33.3937 46.6114 11.7143 77.6586 11.7143C113.775 11.7143 143.103 41.0421 143.103 77.1586C143.103 113.275 113.775 142.603 77.6586 142.603C41.5421 142.603 12.2143 113.275 12.2143 77.1586C12.2143 72.0909 12.7906 67.1635 13.879 62.4362L13.879 62.4361ZM77.6586 0C41.03 0 10.3455 25.5697 2.46331 59.808C1.17796 65.3909 0.5 71.1999 0.5 77.1586C0.5 119.745 35.0725 154.317 77.6586 154.317C120.245 154.317 154.817 119.745 154.817 77.1586C154.817 34.5725 120.245 0 77.6586 0ZM50.9463 49.7065C48.7635 48.015 45.6229 48.4134 43.9314 50.5962C42.24 52.779 42.6384 55.9196 44.8212 57.611L69.372 76.6351L44.8212 95.6591C42.6384 97.3505 42.24 100.491 43.9315 102.674C45.6229 104.857 48.7635 105.255 50.9463 103.564L77.5351 82.9605L104.124 103.563C106.306 105.255 109.447 104.856 111.138 102.674C112.83 100.491 112.431 97.3502 110.249 95.6588L85.6982 76.6351L110.249 57.611C112.432 55.9196 112.83 52.779 111.139 50.5962C109.447 48.4134 106.307 48.015 104.124 49.7065L77.5351 70.3096L50.9463 49.7065Z" fill="#C11D20"/>
</svg>