<svg xmlns="http://www.w3.org/2000/svg" width="1420" height="1004" viewBox="0 0 1420 1004" fill="none">
  <g opacity="0.4">
    <path d="M1418.7 1004L1371.43 992.834C1345.63 986.718 1303.59 986.718 1277.78 992.834C1251.98 998.95 1208.68 999.051 1182.39 992.834C1156.09 986.616 1114.54 986.718 1088.47 992.834C1062.39 998.95 1019.42 999.051 993.119 992.834C966.822 986.616 925.274 986.718 899.424 992.834C873.574 998.95 830.327 999.051 804.03 992.834C777.733 986.616 736.185 986.718 710.38 992.834C684.575 998.95 641.283 999.051 614.986 992.834C588.689 986.616 547.141 986.718 521.068 992.834C494.994 998.95 451.971 999.051 425.673 992.834C399.376 986.616 357.829 986.718 331.755 992.834C305.682 998.95 262.703 999.051 236.361 992.834C210.019 986.616 168.516 986.718 142.711 992.834C116.906 998.95 73.5694 999.051 47.2722 992.834L0 981.667L0.849748 980.475L48.7927 991.666C74.6426 997.757 116.682 997.757 142.487 991.666C168.293 985.576 211.585 985.449 237.926 991.666C264.268 997.884 305.771 997.757 331.576 991.666C357.382 985.576 400.673 985.449 426.97 991.666C453.267 997.884 494.86 997.757 520.889 991.666C546.917 985.576 589.986 985.449 616.283 991.666C642.58 997.884 684.128 997.757 709.933 991.666C735.738 985.576 779.03 985.449 805.327 991.666C831.624 997.884 873.172 997.757 899.022 991.666C924.872 985.576 968.119 985.449 994.416 991.666C1020.71 997.884 1062.26 997.757 1088.07 991.666C1113.87 985.576 1157.16 985.449 1183.46 991.666C1209.76 997.884 1251.3 997.757 1277.38 991.666C1303.45 985.576 1346.43 985.449 1372.73 991.666L1420 1002.83L1418.7 1004Z" fill="#108080"/>
    <path d="M1418.7 982.683L1371.43 971.516C1345.63 965.4 1303.59 965.4 1277.78 971.516C1251.98 977.633 1208.68 977.734 1182.39 971.516C1156.09 965.299 1114.54 965.4 1088.47 971.516C1062.39 977.633 1019.42 977.734 993.119 971.516C966.822 965.299 925.274 965.4 899.424 971.516C873.574 977.633 830.327 977.734 804.03 971.516C777.733 965.299 736.185 965.4 710.38 971.516C684.575 977.633 641.283 977.734 614.986 971.516C588.689 965.299 547.141 965.4 521.068 971.516C494.994 977.633 451.971 977.734 425.673 971.516C399.376 965.299 357.829 965.4 331.755 971.516C305.682 977.633 262.703 977.734 236.361 971.516C210.019 965.299 168.516 965.4 142.711 971.516C116.906 977.633 73.5694 977.734 47.2722 971.516L0 960.35L0.849748 959.157L48.122 970.349C73.9719 976.465 116.012 976.465 141.817 970.349C167.622 964.233 210.914 964.131 237.255 970.349C263.597 976.567 305.1 976.465 330.905 970.349C356.711 964.233 400.003 964.131 426.3 970.349C452.597 976.567 494.189 976.465 520.218 970.349C546.247 964.233 589.315 964.131 615.612 970.349C641.909 976.567 683.457 976.465 709.262 970.349C735.067 964.233 778.359 964.131 804.656 970.349C830.953 976.567 872.501 976.465 898.351 970.349C924.201 964.233 967.448 964.131 993.745 970.349C1020.04 976.567 1061.59 976.465 1087.4 970.349C1113.2 964.233 1156.49 964.131 1182.79 970.349C1209.09 976.567 1250.63 976.465 1276.71 970.349C1302.78 964.233 1345.76 964.131 1372.06 970.349L1419.33 981.515L1418.7 982.683Z" fill="#108080"/>
    <path d="M1418.7 961.391L1371.43 950.199C1345.63 944.108 1303.59 944.108 1277.78 950.199C1251.98 956.29 1208.68 956.416 1182.39 950.199C1156.09 943.981 1114.54 944.108 1088.47 950.199C1062.39 956.29 1019.42 956.416 993.119 950.199C966.822 943.981 925.274 944.108 899.424 950.199C873.574 956.29 830.327 956.416 804.03 950.199C777.733 943.981 736.185 944.108 710.38 950.199C684.575 956.29 641.283 956.416 614.986 950.199C588.689 943.981 547.141 944.108 521.068 950.199C494.994 956.29 451.971 956.416 425.673 950.199C399.376 943.981 357.829 944.108 331.755 950.199C305.682 956.29 262.703 956.416 236.361 950.199C210.019 943.981 168.516 944.108 142.711 950.199C116.906 956.29 73.5694 956.416 47.2722 950.199L0 939.033L0.849748 937.865L48.122 949.032C73.9719 955.148 116.012 955.148 141.817 949.032C167.622 942.916 210.914 942.814 237.255 949.032C263.597 955.249 305.1 955.148 330.905 949.032C356.711 942.916 400.003 942.814 426.3 949.032C452.597 955.249 494.189 955.148 520.218 949.032C546.247 942.916 589.315 942.814 615.612 949.032C641.909 955.249 683.457 955.148 709.262 949.032C735.067 942.916 778.359 942.814 804.656 949.032C830.953 955.249 872.501 955.148 898.351 949.032C924.201 942.916 967.448 942.814 993.745 949.032C1020.04 955.249 1061.59 955.148 1087.4 949.032C1113.2 942.916 1156.49 942.814 1182.79 949.032C1209.09 955.249 1250.63 955.148 1276.71 949.032C1302.78 942.916 1345.76 942.814 1372.06 949.032L1419.33 960.198L1418.7 961.391Z" fill="#108080"/>
    <path d="M1418.7 940.073L1371.43 928.882C1345.63 922.791 1303.59 922.791 1277.78 928.882C1251.98 934.972 1208.68 935.099 1182.39 928.882C1156.09 922.664 1114.54 922.791 1088.47 928.882C1062.39 934.972 1019.42 935.099 993.119 928.882C966.822 922.664 925.274 922.791 899.424 928.882C873.574 934.972 830.327 935.099 804.03 928.882C777.733 922.664 736.185 922.791 710.38 928.882C684.575 934.972 641.283 935.099 614.986 928.882C588.689 922.664 547.141 922.791 521.068 928.882C494.994 934.972 451.971 935.099 425.673 928.882C399.376 922.664 357.829 922.791 331.755 928.882C305.682 934.972 262.703 935.099 236.361 928.882C210.019 922.664 168.516 922.791 142.711 928.882C116.906 934.972 73.5694 935.099 47.2722 928.882L0 917.715L0.849748 916.548L48.122 927.714C73.9719 933.83 116.012 933.83 141.817 927.714C167.622 921.598 210.914 921.497 237.255 927.714C263.597 933.932 305.1 933.83 330.905 927.714C356.711 921.598 400.003 921.497 426.3 927.714C452.597 933.932 494.189 933.83 520.218 927.714C546.247 921.598 589.315 921.497 615.612 927.714C641.909 933.932 683.457 933.83 709.262 927.714C735.067 921.598 778.359 921.497 804.656 927.714C830.953 933.932 872.501 933.83 898.351 927.714C924.201 921.598 967.448 921.497 993.745 927.714C1020.04 933.932 1061.59 933.83 1087.4 927.714C1113.2 921.598 1156.49 921.497 1182.79 927.714C1209.09 933.932 1250.63 933.83 1276.71 927.714C1302.78 921.598 1345.76 921.497 1372.06 927.714L1419.33 938.881L1418.7 940.073Z" fill="#108080"/>
    <path d="M1418.7 918.756L1371.43 907.564C1345.63 901.473 1303.59 901.473 1277.78 907.564C1251.98 913.655 1208.68 913.782 1182.39 907.564C1156.09 901.346 1114.54 901.473 1088.47 907.564C1062.39 913.655 1019.42 913.782 993.119 907.564C966.822 901.346 925.274 901.473 899.424 907.564C873.574 913.655 830.327 913.782 804.03 907.564C777.733 901.346 736.185 901.473 710.38 907.564C684.575 913.655 641.283 913.782 614.986 907.564C588.689 901.346 547.141 901.473 521.068 907.564C494.994 913.655 451.971 913.782 425.673 907.564C399.376 901.346 357.829 901.473 331.755 907.564C305.682 913.655 262.658 913.782 236.361 907.564C210.064 901.346 168.516 901.473 142.711 907.564C116.906 913.655 73.5694 913.782 47.2722 907.564L0 896.398L0.849748 895.231L48.122 906.397C73.9719 912.513 116.012 912.513 141.817 906.397C167.622 900.281 210.914 900.179 237.255 906.397C263.597 912.614 305.1 912.513 330.905 906.397C356.711 900.281 400.003 900.179 426.3 906.397C452.597 912.614 494.189 912.513 520.218 906.397C546.247 900.281 589.315 900.179 615.612 906.397C641.909 912.614 683.457 912.513 709.262 906.397C735.067 900.281 778.359 900.179 804.656 906.397C830.953 912.614 872.501 912.513 898.351 906.397C924.201 900.281 967.448 900.179 993.745 906.397C1020.04 912.614 1061.59 912.513 1087.4 906.397C1113.2 900.281 1156.49 900.179 1182.79 906.397C1209.09 912.614 1250.63 912.513 1276.71 906.397C1302.78 900.281 1345.76 900.179 1372.06 906.397L1419.33 917.588L1418.7 918.756Z" fill="#108080"/>
    <path d="M1418.7 897.438L1371.43 886.247C1345.63 880.156 1303.59 880.156 1277.78 886.247C1251.98 892.338 1208.68 892.464 1182.39 886.247C1156.09 880.029 1114.54 880.156 1088.47 886.247C1062.39 892.338 1019.42 892.464 993.119 886.247C966.822 880.029 925.274 880.156 899.424 886.247C873.574 892.338 830.327 892.464 804.03 886.247C777.733 880.029 736.185 880.156 710.38 886.247C684.575 892.338 641.283 892.464 614.986 886.247C588.689 880.029 547.141 880.156 521.068 886.247C494.994 892.338 451.971 892.464 425.673 886.247C399.376 880.029 357.829 880.156 331.755 886.247C305.682 892.338 262.658 892.464 236.361 886.247C210.064 880.029 168.516 880.156 142.711 886.247C116.906 892.338 73.5694 892.464 47.2722 886.247L0 875.081L0.849748 873.913L48.122 885.079C73.9719 891.195 116.012 891.195 141.817 885.079C167.622 878.963 210.914 878.862 237.255 885.079C263.597 891.297 305.1 891.195 330.905 885.079C356.711 878.963 400.003 878.862 426.3 885.079C452.597 891.297 494.189 891.195 520.218 885.079C546.247 878.963 589.315 878.862 615.612 885.079C641.909 891.297 683.457 891.195 709.262 885.079C735.067 878.963 778.359 878.862 804.656 885.079C830.953 891.297 872.501 891.195 898.351 885.079C924.201 878.963 967.448 878.862 993.745 885.079C1020.04 891.297 1061.59 891.195 1087.4 885.079C1113.2 878.963 1156.49 878.862 1182.79 885.079C1209.09 891.297 1250.63 891.195 1276.71 885.079C1302.78 878.963 1345.76 878.862 1372.06 885.079L1419.33 896.271L1418.7 897.438Z" fill="#108080"/>
    <path d="M1418.7 876.121L1371.43 864.955C1345.63 858.839 1303.59 858.839 1277.78 864.955C1251.98 871.071 1208.68 871.172 1182.39 864.955C1156.09 858.737 1114.54 858.839 1088.47 864.955C1062.39 871.071 1019.42 871.172 993.119 864.955C966.822 858.737 925.274 858.839 899.424 864.955C873.574 871.071 830.327 871.172 804.03 864.955C777.733 858.737 736.185 858.839 710.38 864.955C684.575 871.071 641.283 871.172 614.986 864.955C588.689 858.737 547.141 858.839 521.068 864.955C494.994 871.071 451.971 871.172 425.673 864.955C399.376 858.737 357.829 858.839 331.755 864.955C305.682 871.071 262.658 871.172 236.361 864.955C210.064 858.737 168.516 858.839 142.711 864.955C116.906 871.071 73.5694 871.172 47.2722 864.955L0 853.763L0.849748 852.596L48.122 863.762C73.9719 869.878 116.012 869.878 141.817 863.762C167.622 857.646 210.914 857.544 237.255 863.762C263.597 869.979 305.1 869.878 330.905 863.762C356.711 857.646 400.003 857.544 426.3 863.762C452.597 869.979 494.189 869.878 520.218 863.762C546.247 857.646 589.315 857.544 615.612 863.762C641.909 869.979 683.457 869.878 709.262 863.762C735.067 857.646 778.359 857.544 804.656 863.762C830.953 869.979 872.501 869.878 898.351 863.762C924.201 857.646 967.448 857.544 993.745 863.762C1020.04 869.979 1061.59 869.878 1087.4 863.762C1113.2 857.646 1156.49 857.544 1182.79 863.762C1209.09 869.979 1250.63 869.878 1276.71 863.762C1302.78 857.646 1345.76 857.544 1372.06 863.762L1419.55 874.928L1418.7 876.121Z" fill="#108080"/>
    <path d="M1418.7 854.804L1371.43 843.637C1345.63 837.521 1303.59 837.521 1277.78 843.637C1251.98 849.753 1208.68 849.855 1182.39 843.637C1156.09 837.42 1114.54 837.521 1088.47 843.637C1062.39 849.753 1019.42 849.855 993.119 843.637C966.822 837.42 925.274 837.521 899.424 843.637C873.574 849.753 830.327 849.855 804.03 843.637C777.733 837.42 736.185 837.521 710.38 843.637C684.575 849.753 641.283 849.855 614.986 843.637C588.689 837.42 547.141 837.521 521.068 843.637C494.994 849.753 451.971 849.855 425.673 843.637C399.376 837.42 357.829 837.521 331.755 843.637C305.682 849.753 262.658 849.855 236.361 843.637C210.064 837.42 168.516 837.521 142.711 843.637C116.906 849.753 73.5694 849.855 47.2722 843.637L0 832.446L0.849748 831.278L48.122 842.445C73.9719 848.561 116.012 848.561 141.817 842.445C167.622 836.329 210.914 836.252 237.255 842.445C263.597 848.637 305.1 848.561 330.905 842.445C356.711 836.329 400.003 836.252 426.3 842.445C452.597 848.637 494.189 848.561 520.218 842.445C546.247 836.329 589.315 836.227 615.612 842.445C641.909 848.662 683.457 848.561 709.262 842.445C735.067 836.329 778.359 836.227 804.656 842.445C830.953 848.662 872.501 848.561 898.351 842.445C924.201 836.329 967.448 836.227 993.745 842.445C1020.04 848.662 1061.59 848.561 1087.4 842.445C1113.2 836.329 1156.49 836.227 1182.79 842.445C1209.09 848.662 1250.63 848.561 1276.71 842.445C1302.78 836.329 1345.76 836.227 1372.06 842.445L1419.33 853.636L1418.7 854.804Z" fill="#108080"/>
    <path d="M1418.7 833.486L1371.43 822.32C1345.63 816.204 1303.59 816.204 1277.78 822.32C1251.98 828.436 1208.68 828.537 1182.39 822.32C1156.09 816.102 1114.54 816.204 1088.47 822.32C1062.39 828.436 1019.42 828.537 993.119 822.32C966.822 816.102 925.274 816.204 899.424 822.32C873.574 828.436 830.327 828.537 804.03 822.32C777.733 816.102 736.185 816.204 710.38 822.32C684.575 828.436 641.283 828.537 614.986 822.32C588.689 816.102 547.141 816.204 521.068 822.32C494.994 828.436 451.971 828.537 425.673 822.32C399.376 816.102 357.829 816.204 331.755 822.32C305.682 828.436 262.658 828.537 236.361 822.32C210.064 816.102 168.516 816.204 142.711 822.32C116.906 828.436 73.5694 828.537 47.2722 822.32L0 811.128L0.849748 809.961L48.122 821.152C73.9719 827.243 116.012 827.243 141.817 821.152C167.622 815.062 210.914 814.935 237.255 821.152C263.597 827.37 305.1 827.243 330.905 821.152C356.711 815.062 400.003 814.935 426.3 821.152C452.597 827.37 494.189 827.243 520.218 821.152C546.247 815.062 589.315 814.935 615.612 821.152C641.909 827.37 683.457 827.243 709.262 821.152C735.067 815.062 778.359 814.935 804.656 821.152C830.953 827.37 872.501 827.243 898.351 821.152C924.201 815.062 967.448 814.935 993.745 821.152C1020.04 827.37 1061.59 827.243 1087.4 821.152C1113.2 815.062 1156.49 814.935 1182.79 821.152C1209.09 827.37 1250.63 827.243 1276.71 821.152C1302.78 815.062 1345.76 814.935 1372.06 821.152L1419.33 832.319L1418.7 833.486Z" fill="#108080"/>
    <path d="M1418.7 812.169L1371.43 801.003C1345.63 794.886 1303.59 794.886 1277.78 801.003C1251.98 807.119 1208.68 807.22 1182.39 801.003C1156.09 794.785 1114.54 794.886 1088.47 801.003C1062.39 807.119 1019.42 807.22 993.119 801.003C966.822 794.785 925.274 794.886 899.424 801.003C873.574 807.119 830.327 807.22 804.03 801.003C777.733 794.785 736.185 794.886 710.38 801.003C684.575 807.119 641.283 807.22 614.986 801.003C588.689 794.785 547.141 794.886 521.068 801.003C494.994 807.119 451.971 807.22 425.673 801.003C399.376 794.785 357.829 794.886 331.755 801.003C305.682 807.119 262.703 807.22 236.361 801.003C210.019 794.785 168.516 794.886 142.711 801.003C116.906 807.119 73.5694 807.22 47.2722 801.003L0 789.811L0.849748 788.643L48.122 799.835C73.9719 805.926 116.012 805.926 141.817 799.835C167.622 793.744 210.914 793.617 237.255 799.835C263.597 806.053 305.1 805.926 330.905 799.835C356.711 793.744 400.003 793.617 426.3 799.835C452.597 806.053 494.189 805.926 520.218 799.835C546.247 793.744 589.315 793.617 615.612 799.835C641.909 806.053 683.457 805.926 709.262 799.835C735.067 793.744 778.359 793.617 804.656 799.835C830.953 806.053 872.501 805.926 898.351 799.835C924.201 793.744 967.448 793.617 993.745 799.835C1020.04 806.053 1061.59 805.926 1087.4 799.835C1113.2 793.744 1156.49 793.617 1182.79 799.835C1209.09 806.053 1250.63 805.926 1276.71 799.835C1302.78 793.744 1345.76 793.617 1372.06 799.835L1419.33 811.001L1418.7 812.169Z" fill="#108080"/>
    <path d="M1418.7 790.851L1371.43 779.685C1345.63 773.569 1303.59 773.569 1277.78 779.685C1251.98 785.801 1208.68 785.903 1182.39 779.685C1156.09 773.467 1114.54 773.569 1088.47 779.685C1062.39 785.801 1019.42 785.903 993.119 779.685C966.822 773.467 925.274 773.569 899.424 779.685C873.574 785.801 830.327 785.903 804.03 779.685C777.733 773.467 736.185 773.569 710.38 779.685C684.575 785.801 641.283 785.903 614.986 779.685C588.689 773.467 547.141 773.569 521.068 779.685C494.994 785.801 451.971 785.903 425.673 779.685C399.376 773.467 357.829 773.569 331.755 779.685C305.682 785.801 262.703 785.903 236.361 779.685C210.019 773.467 168.516 773.569 142.711 779.685C116.906 785.801 73.5694 785.903 47.2722 779.685L0 768.519L0.849748 767.326L48.7927 778.492C74.6426 784.583 116.682 784.583 142.487 778.492C168.293 772.402 211.585 772.275 237.926 778.492C264.268 784.71 305.771 784.583 331.576 778.492C357.382 772.402 400.673 772.275 426.97 778.492C453.267 784.71 494.86 784.583 520.889 778.492C546.917 772.402 589.986 772.275 616.283 778.492C642.58 784.71 684.128 784.583 709.933 778.492C735.738 772.402 779.03 772.275 805.327 778.492C831.624 784.71 873.172 784.583 899.022 778.492C924.872 772.402 968.119 772.275 994.416 778.492C1020.71 784.71 1062.26 784.583 1088.07 778.492C1113.87 772.402 1157.16 772.275 1183.46 778.492C1209.76 784.71 1251.3 784.583 1277.38 778.492C1303.45 772.402 1346.43 772.275 1372.73 778.492L1420 789.659L1418.7 790.851Z" fill="#108080"/>
    <path d="M1418.7 769.534L1371.43 758.368C1345.63 752.252 1303.59 752.252 1277.78 758.368C1251.98 764.484 1208.68 764.585 1182.39 758.368C1156.09 752.15 1114.54 752.252 1088.47 758.368C1062.39 764.484 1019.42 764.585 993.119 758.368C966.822 752.15 925.274 752.252 899.424 758.368C873.574 764.484 830.327 764.585 804.03 758.368C777.733 752.15 736.185 752.252 710.38 758.368C684.575 764.484 641.283 764.585 614.986 758.368C588.689 752.15 547.141 752.252 521.068 758.368C494.994 764.484 451.971 764.585 425.673 758.368C399.376 752.15 357.829 752.252 331.755 758.368C305.682 764.484 262.703 764.585 236.361 758.368C210.019 752.15 168.516 752.252 142.711 758.368C116.906 764.484 73.5694 764.585 47.2722 758.368L0 747.201L0.849748 746.009L48.122 757.2C73.9719 763.316 116.012 763.316 141.817 757.2C167.622 751.084 210.914 750.983 237.255 757.2C263.597 763.418 305.1 763.316 330.905 757.2C356.711 751.084 400.003 750.983 426.3 757.2C452.597 763.418 494.189 763.316 520.218 757.2C546.247 751.084 589.315 750.983 615.612 757.2C641.909 763.418 683.457 763.316 709.262 757.2C735.067 751.084 778.359 750.983 804.656 757.2C830.953 763.418 872.501 763.316 898.351 757.2C924.201 751.084 967.448 750.983 993.745 757.2C1020.04 763.418 1061.59 763.316 1087.4 757.2C1113.2 751.084 1156.49 750.983 1182.79 757.2C1209.09 763.418 1250.63 763.316 1276.71 757.2C1302.78 751.084 1345.76 750.983 1372.06 757.2L1419.33 768.367L1418.7 769.534Z" fill="#108080"/>
    <path d="M1418.7 748.242L1371.43 737.05C1345.63 730.959 1303.59 730.959 1277.78 737.05C1251.98 743.141 1208.68 743.268 1182.39 737.05C1156.09 730.833 1114.54 730.959 1088.47 737.05C1062.39 743.141 1019.42 743.268 993.119 737.05C966.822 730.833 925.274 730.959 899.424 737.05C873.574 743.141 830.327 743.268 804.03 737.05C777.733 730.833 736.185 730.959 710.38 737.05C684.575 743.141 641.283 743.268 614.986 737.05C588.689 730.833 547.141 730.959 521.068 737.05C494.994 743.141 451.971 743.268 425.673 737.05C399.376 730.833 357.829 730.959 331.755 737.05C305.682 743.141 262.703 743.268 236.361 737.05C210.019 730.833 168.516 730.959 142.711 737.05C116.906 743.141 73.5694 743.268 47.2722 737.05L0 725.884L0.849748 724.716L48.122 735.883C73.9719 741.999 116.012 741.999 141.817 735.883C167.622 729.767 210.914 729.665 237.255 735.883C263.597 742.1 305.1 741.999 330.905 735.883C356.711 729.767 400.003 729.665 426.3 735.883C452.597 742.1 494.189 741.999 520.218 735.883C546.247 729.767 589.315 729.665 615.612 735.883C641.909 742.1 683.457 741.999 709.262 735.883C735.067 729.767 778.359 729.665 804.656 735.883C830.953 742.1 872.501 741.999 898.351 735.883C924.201 729.767 967.448 729.665 993.745 735.883C1020.04 742.1 1061.59 741.999 1087.4 735.883C1113.2 729.767 1156.49 729.665 1182.79 735.883C1209.09 742.1 1250.63 741.999 1276.71 735.883C1302.78 729.767 1345.76 729.665 1372.06 735.883L1419.33 747.049L1418.7 748.242Z" fill="#108080"/>
    <path d="M1418.7 726.924L1371.43 715.733C1345.63 709.642 1303.59 709.642 1277.78 715.733C1251.98 721.824 1208.68 721.95 1182.39 715.733C1156.09 709.515 1114.54 709.642 1088.47 715.733C1062.39 721.824 1019.42 721.95 993.119 715.733C966.822 709.515 925.274 709.642 899.424 715.733C873.574 721.824 830.327 721.95 804.03 715.733C777.733 709.515 736.185 709.642 710.38 715.733C684.575 721.824 641.283 721.95 614.986 715.733C588.689 709.515 547.141 709.642 521.068 715.733C494.994 721.824 451.971 721.95 425.673 715.733C399.376 709.515 357.829 709.642 331.755 715.733C305.682 721.824 262.703 721.95 236.361 715.733C210.019 709.515 168.516 709.642 142.711 715.733C116.906 721.824 73.5694 721.95 47.2722 715.733L0 704.566L0.849748 703.399L48.122 714.565C73.9719 720.682 116.012 720.682 141.817 714.565C167.622 708.449 210.914 708.348 237.255 714.565C263.597 720.783 305.1 720.682 330.905 714.565C356.711 708.449 400.003 708.348 426.3 714.565C452.597 720.783 494.189 720.682 520.218 714.565C546.247 708.449 589.315 708.348 615.612 714.565C641.909 720.783 683.457 720.682 709.262 714.565C735.067 708.449 778.359 708.348 804.656 714.565C830.953 720.783 872.501 720.682 898.351 714.565C924.201 708.449 967.448 708.348 993.745 714.565C1020.04 720.783 1061.59 720.682 1087.4 714.565C1113.2 708.449 1156.49 708.348 1182.79 714.565C1209.09 720.783 1250.63 720.682 1276.71 714.565C1302.78 708.449 1345.76 708.348 1372.06 714.565L1419.33 725.732L1418.7 726.924Z" fill="#108080"/>
    <path d="M1418.7 705.607L1371.43 694.415C1345.63 688.325 1303.59 688.325 1277.78 694.415C1251.98 700.506 1208.68 700.633 1182.39 694.415C1156.09 688.198 1114.54 688.325 1088.47 694.415C1062.39 700.506 1019.42 700.633 993.119 694.415C966.822 688.198 925.274 688.325 899.424 694.415C873.574 700.506 830.327 700.633 804.03 694.415C777.733 688.198 736.185 688.325 710.38 694.415C684.575 700.506 641.283 700.633 614.986 694.415C588.689 688.198 547.141 688.325 521.068 694.415C494.994 700.506 451.971 700.633 425.673 694.415C399.376 688.198 357.829 688.325 331.755 694.415C305.682 700.506 262.658 700.633 236.361 694.415C210.064 688.198 168.516 688.325 142.711 694.415C116.906 700.506 73.5694 700.633 47.2722 694.415L0 683.249L0.849748 682.082L48.122 693.248C73.9719 699.364 116.012 699.364 141.817 693.248C167.622 687.132 210.914 687.03 237.255 693.248C263.597 699.466 305.1 699.364 330.905 693.248C356.711 687.132 400.003 687.03 426.3 693.248C452.597 699.466 494.189 699.364 520.218 693.248C546.247 687.132 589.315 687.03 615.612 693.248C641.909 699.466 683.457 699.364 709.262 693.248C735.067 687.132 778.359 687.03 804.656 693.248C830.953 699.466 872.501 699.364 898.351 693.248C924.201 687.132 967.448 687.03 993.745 693.248C1020.04 699.466 1061.59 699.364 1087.4 693.248C1113.2 687.132 1156.49 687.03 1182.79 693.248C1209.09 699.466 1250.63 699.364 1276.71 693.248C1302.78 687.132 1345.76 687.03 1372.06 693.248L1419.33 704.44L1418.7 705.607Z" fill="#108080"/>
    <path d="M1418.7 684.289L1371.43 673.098C1345.63 667.007 1303.59 667.007 1277.78 673.098C1251.98 679.188 1208.68 679.315 1182.39 673.098C1156.09 666.88 1114.54 667.007 1088.47 673.098C1062.39 679.188 1019.42 679.315 993.119 673.098C966.822 666.88 925.274 667.007 899.424 673.098C873.574 679.188 830.327 679.315 804.03 673.098C777.733 666.88 736.185 667.007 710.38 673.098C684.575 679.188 641.283 679.315 614.986 673.098C588.689 666.88 547.141 667.007 521.068 673.098C494.994 679.188 451.971 679.315 425.673 673.098C399.376 666.88 357.829 667.007 331.755 673.098C305.682 679.188 262.658 679.315 236.361 673.098C210.064 666.88 168.516 667.007 142.711 673.098C116.906 679.188 73.5694 679.315 47.2722 673.098L0 661.932L0.849748 660.764L48.122 671.931C73.9719 678.047 116.012 678.047 141.817 671.931C167.622 665.814 210.914 665.713 237.255 671.931C263.597 678.148 305.1 678.047 330.905 671.931C356.711 665.814 400.003 665.713 426.3 671.931C452.597 678.148 494.189 678.047 520.218 671.931C546.247 665.814 589.315 665.713 615.612 671.931C641.909 678.148 683.457 678.047 709.262 671.931C735.067 665.814 778.359 665.713 804.656 671.931C830.953 678.148 872.501 678.047 898.351 671.931C924.201 665.814 967.448 665.713 993.745 671.931C1020.04 678.148 1061.59 678.047 1087.4 671.931C1113.2 665.814 1156.49 665.713 1182.79 671.931C1209.09 678.148 1250.63 678.047 1276.71 671.931C1302.78 665.814 1345.76 665.713 1372.06 671.931L1419.33 683.122L1418.7 684.289Z" fill="#108080"/>
    <path d="M1418.7 662.972L1371.43 651.806C1345.63 645.69 1303.59 645.69 1277.78 651.806C1251.98 657.922 1208.68 658.023 1182.39 651.806C1156.09 645.588 1114.54 645.69 1088.47 651.806C1062.39 657.922 1019.42 658.023 993.119 651.806C966.822 645.588 925.274 645.69 899.424 651.806C873.574 657.922 830.327 658.023 804.03 651.806C777.733 645.588 736.185 645.69 710.38 651.806C684.575 657.922 641.283 658.023 614.986 651.806C588.689 645.588 547.141 645.69 521.068 651.806C494.994 657.922 451.971 658.023 425.673 651.806C399.376 645.588 357.829 645.69 331.755 651.806C305.682 657.922 262.658 658.023 236.361 651.806C210.064 645.588 168.516 645.69 142.711 651.806C116.906 657.922 73.5694 658.023 47.2722 651.806L0 640.614L0.849748 639.447L48.122 650.613C73.9719 656.729 116.012 656.729 141.817 650.613C167.622 644.497 210.914 644.396 237.255 650.613C263.597 656.831 305.1 656.729 330.905 650.613C356.711 644.497 400.003 644.396 426.3 650.613C452.597 656.831 494.189 656.729 520.218 650.613C546.247 644.497 589.315 644.396 615.612 650.613C641.909 656.831 683.457 656.729 709.262 650.613C735.067 644.497 778.359 644.396 804.656 650.613C830.953 656.831 872.501 656.729 898.351 650.613C924.201 644.497 967.448 644.396 993.745 650.613C1020.04 656.831 1061.59 656.729 1087.4 650.613C1113.2 644.497 1156.49 644.396 1182.79 650.613C1209.09 656.831 1250.63 656.729 1276.71 650.613C1302.78 644.497 1345.76 644.396 1372.06 650.613L1419.55 661.754L1418.7 662.972Z" fill="#108080"/>
    <path d="M1418.7 641.655L1371.43 630.488C1345.63 624.372 1303.59 624.372 1277.78 630.488C1251.98 636.604 1208.68 636.706 1182.39 630.488C1156.09 624.271 1114.54 624.372 1088.47 630.488C1062.39 636.604 1019.42 636.706 993.119 630.488C966.822 624.271 925.274 624.372 899.424 630.488C873.574 636.604 830.327 636.706 804.03 630.488C777.733 624.271 736.185 624.372 710.38 630.488C684.575 636.604 641.283 636.706 614.986 630.488C588.689 624.271 547.141 624.372 521.068 630.488C494.994 636.604 451.971 636.706 425.673 630.488C399.376 624.271 357.829 624.372 331.755 630.488C305.682 636.604 262.658 636.706 236.361 630.488C210.064 624.271 168.516 624.372 142.711 630.488C116.906 636.604 73.5694 636.706 47.2722 630.488L0 619.297L0.849748 618.129L48.122 629.321C73.9719 635.412 116.012 635.412 141.817 629.321C167.622 623.23 210.914 623.103 237.255 629.321C263.597 635.539 305.1 635.412 330.905 629.321C356.711 623.23 400.003 623.103 426.3 629.321C452.597 635.539 494.189 635.412 520.218 629.321C546.247 623.23 589.315 623.078 615.612 629.321C641.909 635.564 683.457 635.412 709.262 629.321C735.067 623.23 778.359 623.078 804.656 629.321C830.953 635.564 872.501 635.412 898.351 629.321C924.201 623.23 967.448 623.078 993.745 629.321C1020.04 635.564 1061.59 635.412 1087.4 629.321C1113.2 623.23 1156.49 623.078 1182.79 629.321C1209.09 635.564 1250.63 635.412 1276.71 629.321C1302.78 623.23 1345.76 623.078 1372.06 629.321L1419.33 640.487L1418.7 641.655Z" fill="#108080"/>
    <path d="M1418.7 620.337L1371.43 609.171C1345.63 603.055 1303.59 603.055 1277.78 609.171C1251.98 615.287 1208.68 615.389 1182.39 609.171C1156.09 602.953 1114.54 603.055 1088.47 609.171C1062.39 615.287 1019.42 615.389 993.119 609.171C966.822 602.953 925.274 603.055 899.424 609.171C873.574 615.287 830.327 615.389 804.03 609.171C777.733 602.953 736.185 603.055 710.38 609.171C684.575 615.287 641.283 615.389 614.986 609.171C588.689 602.953 547.141 603.055 521.068 609.171C494.994 615.287 451.971 615.389 425.673 609.171C399.376 602.953 357.829 603.055 331.755 609.171C305.682 615.287 262.658 615.389 236.361 609.171C210.064 602.953 168.516 603.055 142.711 609.171C116.906 615.287 73.5694 615.389 47.2722 609.171L0 597.979L0.849748 596.812L48.122 608.004C73.9719 614.094 116.012 614.094 141.817 608.004C167.622 601.913 210.914 601.786 237.255 608.004C263.597 614.221 305.1 614.094 330.905 608.004C356.711 601.913 400.003 601.786 426.3 608.004C452.597 614.221 494.189 614.094 520.218 608.004C546.247 601.913 589.315 601.786 615.612 608.004C641.909 614.221 683.457 614.094 709.262 608.004C735.067 601.913 778.359 601.786 804.656 608.004C830.953 614.221 872.501 614.094 898.351 608.004C924.201 601.913 967.448 601.786 993.745 608.004C1020.04 614.221 1061.59 614.094 1087.4 608.004C1113.2 601.913 1156.49 601.786 1182.79 608.004C1209.09 614.221 1250.63 614.094 1276.71 608.004C1302.78 601.913 1345.76 601.786 1372.06 608.004L1419.33 619.17L1418.7 620.337Z" fill="#108080"/>
    <path d="M1418.7 599.02L1371.43 587.854C1345.63 581.737 1303.59 581.737 1277.78 587.854C1251.98 593.97 1208.68 594.071 1182.39 587.854C1156.09 581.636 1114.54 581.737 1088.47 587.854C1062.39 593.97 1019.42 594.071 993.119 587.854C966.822 581.636 925.274 581.737 899.424 587.854C873.574 593.97 830.327 594.071 804.03 587.854C777.733 581.636 736.185 581.737 710.38 587.854C684.575 593.97 641.283 594.071 614.986 587.854C588.689 581.636 547.141 581.737 521.068 587.854C494.994 593.97 451.971 594.071 425.673 587.854C399.376 581.636 357.829 581.737 331.755 587.854C305.682 593.97 262.703 594.071 236.361 587.854C210.019 581.636 168.516 581.737 142.711 587.854C116.906 593.97 73.5694 594.071 47.2722 587.854L0 576.687L0.849748 575.494L48.122 586.686C73.9719 592.777 116.012 592.777 141.817 586.686C167.622 580.595 210.914 580.469 237.255 586.686C263.597 592.904 305.1 592.777 330.905 586.686C356.711 580.595 400.003 580.469 426.3 586.686C452.597 592.904 494.189 592.777 520.218 586.686C546.247 580.595 589.315 580.469 615.612 586.686C641.909 592.904 683.457 592.777 709.262 586.686C735.067 580.595 778.359 580.469 804.656 586.686C830.953 592.904 872.501 592.777 898.351 586.686C924.201 580.595 967.448 580.469 993.745 586.686C1020.04 592.904 1061.59 592.777 1087.4 586.686C1113.2 580.595 1156.49 580.469 1182.79 586.686C1209.09 592.904 1250.63 592.777 1276.71 586.686C1302.78 580.595 1345.76 580.469 1372.06 586.686L1419.33 597.852L1418.7 599.02Z" fill="#108080"/>
    <path d="M1418.7 577.702L1371.43 566.536C1345.63 560.42 1303.59 560.42 1277.78 566.536C1251.98 572.652 1208.68 572.754 1182.39 566.536C1156.09 560.318 1114.54 560.42 1088.47 566.536C1062.39 572.652 1019.42 572.754 993.119 566.536C966.822 560.318 925.274 560.42 899.424 566.536C873.574 572.652 830.327 572.754 804.03 566.536C777.733 560.318 736.185 560.42 710.38 566.536C684.575 572.652 641.283 572.754 614.986 566.536C588.689 560.318 547.141 560.42 521.068 566.536C494.994 572.652 451.971 572.754 425.673 566.536C399.376 560.318 357.829 560.42 331.755 566.536C305.682 572.652 262.703 572.754 236.361 566.536C210.019 560.318 168.516 560.42 142.711 566.536C116.906 572.652 73.5694 572.754 47.2722 566.536L0 555.37L0.849748 554.177L48.7927 565.318C74.6426 571.409 116.682 571.409 142.487 565.318C168.293 559.227 211.585 559.1 237.926 565.318C264.268 571.536 305.771 571.409 331.576 565.318C357.382 559.227 400.673 559.1 426.97 565.318C453.267 571.536 494.86 571.409 520.889 565.318C546.917 559.227 589.986 559.1 616.283 565.318C642.58 571.536 684.128 571.434 709.933 565.318C735.738 559.202 779.03 559.1 805.327 565.318C831.624 571.536 873.172 571.409 899.022 565.318C924.872 559.227 968.119 559.1 994.416 565.318C1020.71 571.536 1062.26 571.409 1088.07 565.318C1113.87 559.227 1157.16 559.1 1183.46 565.318C1209.76 571.536 1251.3 571.409 1277.38 565.318C1303.45 559.227 1346.43 559.1 1372.73 565.318L1420 576.484L1418.7 577.702Z" fill="#108080"/>
    <path d="M1418.7 556.385L1371.43 545.219C1345.63 539.103 1303.59 539.103 1277.78 545.219C1251.98 551.335 1208.68 551.436 1182.39 545.219C1156.09 539.001 1114.54 539.103 1088.47 545.219C1062.39 551.335 1019.42 551.436 993.119 545.219C966.822 539.001 925.274 539.103 899.424 545.219C873.574 551.335 830.327 551.436 804.03 545.219C777.733 539.001 736.185 539.103 710.38 545.219C684.575 551.335 641.283 551.436 614.986 545.219C588.689 539.001 547.141 539.103 521.068 545.219C494.994 551.335 451.971 551.436 425.673 545.219C399.376 539.001 357.829 539.103 331.755 545.219C305.682 551.335 262.703 551.436 236.361 545.219C210.019 539.001 168.516 539.103 142.711 545.219C116.906 551.335 73.5694 551.436 47.2722 545.219L0 534.052L0.849748 532.885L48.122 544.051C73.9719 550.167 116.012 550.167 141.817 544.051C167.622 537.935 210.914 537.834 237.255 544.051C263.597 550.269 305.1 550.167 330.905 544.051C356.711 537.935 400.003 537.834 426.3 544.051C452.597 550.269 494.189 550.167 520.218 544.051C546.247 537.935 589.315 537.834 615.612 544.051C641.909 550.269 683.457 550.167 709.262 544.051C735.067 537.935 778.359 537.834 804.656 544.051C830.953 550.269 872.501 550.167 898.351 544.051C924.201 537.935 967.448 537.834 993.745 544.051C1020.04 550.269 1061.59 550.167 1087.4 544.051C1113.2 537.935 1156.49 537.834 1182.79 544.051C1209.09 550.269 1250.63 550.167 1276.71 544.051C1302.78 537.935 1345.76 537.834 1372.06 544.051L1419.33 555.218L1418.7 556.385Z" fill="#108080"/>
    <path d="M1418.7 535.093L1371.43 523.901C1345.63 517.81 1303.59 517.81 1277.78 523.901C1251.98 529.992 1208.68 530.119 1182.39 523.901C1156.09 517.684 1114.54 517.81 1088.47 523.901C1062.39 529.992 1019.42 530.119 993.119 523.901C966.822 517.684 925.274 517.81 899.424 523.901C873.574 529.992 830.327 530.119 804.03 523.901C777.733 517.684 736.185 517.81 710.38 523.901C684.575 529.992 641.283 530.119 614.986 523.901C588.689 517.684 547.141 517.81 521.068 523.901C494.994 529.992 451.971 530.119 425.673 523.901C399.376 517.684 357.829 517.81 331.755 523.901C305.682 529.992 262.703 530.119 236.361 523.901C210.019 517.684 168.516 517.81 142.711 523.901C116.906 529.992 73.5694 530.119 47.2722 523.901L0 512.735L0.849748 511.568L48.122 522.734C73.9719 528.85 116.012 528.85 141.817 522.734C167.622 516.618 210.914 516.516 237.255 522.734C263.597 528.951 305.1 528.85 330.905 522.734C356.711 516.618 400.003 516.516 426.3 522.734C452.597 528.951 494.189 528.85 520.218 522.734C546.247 516.618 589.315 516.516 615.612 522.734C641.909 528.951 683.457 528.85 709.262 522.734C735.067 516.618 778.359 516.516 804.656 522.734C830.953 528.951 872.501 528.85 898.351 522.734C924.201 516.618 967.448 516.516 993.745 522.734C1020.04 528.951 1061.59 528.85 1087.4 522.734C1113.2 516.618 1156.49 516.516 1182.79 522.734C1209.09 528.951 1250.63 528.85 1276.71 522.734C1302.78 516.618 1345.76 516.516 1372.06 522.734L1419.33 533.9L1418.7 535.093Z" fill="#108080"/>
    <path d="M1418.7 513.775L1371.43 502.584C1345.63 496.493 1303.59 496.493 1277.78 502.584C1251.98 508.675 1208.68 508.801 1182.39 502.584C1156.09 496.366 1114.54 496.493 1088.47 502.584C1062.39 508.675 1019.42 508.801 993.119 502.584C966.822 496.366 925.274 496.493 899.424 502.584C873.574 508.675 830.327 508.801 804.03 502.584C777.733 496.366 736.185 496.493 710.38 502.584C684.575 508.675 641.283 508.801 614.986 502.584C588.689 496.366 547.141 496.493 521.068 502.584C494.994 508.675 451.971 508.801 425.673 502.584C399.376 496.366 357.829 496.493 331.755 502.584C305.682 508.675 262.703 508.801 236.361 502.584C210.019 496.366 168.516 496.493 142.711 502.584C116.906 508.675 73.5694 508.801 47.2722 502.584L0 491.418L0.849748 490.25L48.122 501.416C73.9719 507.532 116.012 507.532 141.817 501.416C167.622 495.3 210.914 495.199 237.255 501.416C263.597 507.634 305.1 507.532 330.905 501.416C356.711 495.3 400.003 495.199 426.3 501.416C452.597 507.634 494.189 507.532 520.218 501.416C546.247 495.3 589.315 495.199 615.612 501.416C641.909 507.634 683.457 507.532 709.262 501.416C735.067 495.3 778.359 495.199 804.656 501.416C830.953 507.634 872.501 507.532 898.351 501.416C924.201 495.3 967.448 495.199 993.745 501.416C1020.04 507.634 1061.59 507.532 1087.4 501.416C1113.2 495.3 1156.49 495.199 1182.79 501.416C1209.09 507.634 1250.63 507.532 1276.71 501.416C1302.78 495.3 1345.76 495.199 1372.06 501.416L1419.33 512.583L1418.7 513.775Z" fill="#108080"/>
    <path d="M1418.7 492.458L1371.43 481.266C1345.63 475.176 1303.59 475.176 1277.78 481.266C1251.98 487.357 1208.68 487.484 1182.39 481.266C1156.09 475.049 1114.54 475.176 1088.47 481.266C1062.39 487.357 1019.42 487.484 993.119 481.266C966.822 475.049 925.274 475.176 899.424 481.266C873.574 487.357 830.327 487.484 804.03 481.266C777.733 475.049 736.185 475.176 710.38 481.266C684.575 487.357 641.283 487.484 614.986 481.266C588.689 475.049 547.141 475.176 521.068 481.266C494.994 487.357 451.971 487.484 425.673 481.266C399.376 475.049 357.829 475.176 331.755 481.266C305.682 487.357 262.658 487.484 236.361 481.266C210.064 475.049 168.516 475.176 142.711 481.266C116.906 487.357 73.5694 487.484 47.2722 481.266L0 470.1L0.849748 468.933L48.122 480.099C73.9719 486.215 116.012 486.215 141.817 480.099C167.622 473.983 210.914 473.881 237.255 480.099C263.597 486.317 305.1 486.215 330.905 480.099C356.711 473.983 400.003 473.881 426.3 480.099C452.597 486.317 494.189 486.215 520.218 480.099C546.247 473.983 589.315 473.881 615.612 480.099C641.909 486.317 683.457 486.215 709.262 480.099C735.067 473.983 778.359 473.881 804.656 480.099C830.953 486.317 872.501 486.215 898.351 480.099C924.201 473.983 967.448 473.881 993.745 480.099C1020.04 486.317 1061.59 486.215 1087.4 480.099C1113.2 473.983 1156.49 473.881 1182.79 480.099C1209.09 486.317 1250.63 486.215 1276.71 480.099C1302.78 473.983 1345.76 473.881 1372.06 480.099L1419.33 491.291L1418.7 492.458Z" fill="#108080"/>
    <path d="M1418.7 471.141L1371.43 459.974C1345.63 453.858 1303.59 453.858 1277.78 459.974C1251.98 466.09 1208.68 466.192 1182.39 459.974C1156.09 453.757 1114.54 453.858 1088.47 459.974C1062.39 466.09 1019.42 466.192 993.119 459.974C966.822 453.757 925.274 453.858 899.424 459.974C873.574 466.09 830.327 466.192 804.03 459.974C777.733 453.757 736.185 453.858 710.38 459.974C684.575 466.09 641.283 466.192 614.986 459.974C588.689 453.757 547.141 453.858 521.068 459.974C494.994 466.09 451.971 466.192 425.673 459.974C399.376 453.757 357.829 453.858 331.755 459.974C305.682 466.09 262.658 466.192 236.361 459.974C210.064 453.757 168.516 453.858 142.711 459.974C116.906 466.09 73.5694 466.192 47.2722 459.974L0 448.783L0.849748 447.615L48.122 458.782C73.9719 464.898 116.012 464.898 141.817 458.782C167.622 452.665 210.914 452.564 237.255 458.782C263.597 464.999 305.1 464.898 330.905 458.782C356.711 452.665 400.003 452.564 426.3 458.782C452.597 464.999 494.189 464.898 520.218 458.782C546.247 452.665 589.315 452.564 615.612 458.782C641.909 464.999 683.457 464.898 709.262 458.782C735.067 452.665 778.359 452.564 804.656 458.782C830.953 464.999 872.501 464.898 898.351 458.782C924.201 452.665 967.448 452.564 993.745 458.782C1020.04 464.999 1061.59 464.898 1087.4 458.782C1113.2 452.665 1156.49 452.564 1182.79 458.782C1209.09 464.999 1250.63 464.898 1276.71 458.782C1302.78 452.665 1345.76 452.564 1372.06 458.782L1419.33 469.973L1418.7 471.141Z" fill="#108080"/>
    <path d="M1418.7 449.823L1371.43 438.657C1345.63 432.541 1303.59 432.541 1277.78 438.657C1251.98 444.773 1208.68 444.875 1182.39 438.657C1156.09 432.439 1114.54 432.541 1088.47 438.657C1062.39 444.773 1019.42 444.875 993.119 438.657C966.822 432.439 925.274 432.541 899.424 438.657C873.574 444.773 830.327 444.875 804.03 438.657C777.733 432.439 736.185 432.541 710.38 438.657C684.575 444.773 641.283 444.875 614.986 438.657C588.689 432.439 547.141 432.541 521.068 438.657C494.994 444.773 451.971 444.875 425.673 438.657C399.376 432.439 357.829 432.541 331.755 438.657C305.682 444.773 262.658 444.875 236.361 438.657C210.064 432.439 168.516 432.541 142.711 438.657C116.906 444.773 73.5694 444.875 47.2722 438.657L0 427.465L0.849748 426.298L48.122 437.464C73.9719 443.58 116.012 443.58 141.817 437.464C167.622 431.348 210.914 431.247 237.255 437.464C263.597 443.682 305.1 443.58 330.905 437.464C356.711 431.348 400.003 431.247 426.3 437.464C452.597 443.682 494.189 443.58 520.218 437.464C546.247 431.348 589.315 431.247 615.612 437.464C641.909 443.682 683.457 443.58 709.262 437.464C735.067 431.348 778.359 431.247 804.656 437.464C830.953 443.682 872.501 443.58 898.351 437.464C924.201 431.348 967.448 431.247 993.745 437.464C1020.04 443.682 1061.59 443.58 1087.4 437.464C1113.2 431.348 1156.49 431.247 1182.79 437.464C1209.09 443.682 1250.63 443.58 1276.71 437.464C1302.78 431.348 1345.76 431.247 1372.06 437.464L1419.55 448.58L1418.7 449.823Z" fill="#108080"/>
    <path d="M1418.7 428.506L1371.43 417.339C1345.63 411.223 1303.59 411.223 1277.78 417.339C1251.98 423.456 1208.68 423.557 1182.39 417.339C1156.09 411.122 1114.54 411.223 1088.47 417.339C1062.39 423.456 1019.42 423.557 993.119 417.339C966.822 411.122 925.274 411.223 899.424 417.339C873.574 423.456 830.327 423.557 804.03 417.339C777.733 411.122 736.185 411.223 710.38 417.339C684.575 423.456 641.283 423.557 614.986 417.339C588.689 411.122 547.141 411.223 521.068 417.339C494.994 423.456 451.971 423.557 425.673 417.339C399.376 411.122 357.829 411.223 331.755 417.339C305.682 423.456 262.658 423.557 236.361 417.339C210.064 411.122 168.516 411.223 142.711 417.339C116.906 423.456 73.5694 423.557 47.2722 417.339L0 406.148L0.849748 404.98L48.122 416.172C73.9719 422.263 116.012 422.263 141.817 416.172C167.622 410.081 210.914 409.954 237.255 416.172C263.597 422.39 305.1 422.263 330.905 416.172C356.711 410.081 400.003 409.954 426.3 416.172C452.597 422.39 494.189 422.263 520.218 416.172C546.247 410.081 589.315 409.954 615.612 416.172C641.909 422.39 683.457 422.263 709.262 416.172C735.067 410.081 778.359 409.954 804.656 416.172C830.953 422.39 872.501 422.263 898.351 416.172C924.201 410.081 967.448 409.954 993.745 416.172C1020.04 422.39 1061.59 422.263 1087.4 416.172C1113.2 410.081 1156.49 409.954 1182.79 416.172C1209.09 422.39 1250.63 422.263 1276.71 416.172C1302.78 410.081 1345.76 409.954 1372.06 416.172L1419.33 427.338L1418.7 428.506Z" fill="#108080"/>
    <path d="M1418.7 407.188L1371.43 396.022C1345.63 389.906 1303.59 389.906 1277.78 396.022C1251.98 402.138 1208.68 402.24 1182.39 396.022C1156.09 389.804 1114.54 389.906 1088.47 396.022C1062.39 402.138 1019.42 402.24 993.119 396.022C966.822 389.804 925.274 389.906 899.424 396.022C873.574 402.138 830.327 402.24 804.03 396.022C777.733 389.804 736.185 389.906 710.38 396.022C684.575 402.138 641.283 402.24 614.986 396.022C588.689 389.804 547.141 389.906 521.068 396.022C494.994 402.138 451.971 402.24 425.673 396.022C399.376 389.804 357.829 389.906 331.755 396.022C305.682 402.138 262.658 402.24 236.361 396.022C210.064 389.804 168.516 389.906 142.711 396.022C116.906 402.138 73.5694 402.24 47.2722 396.022L0 384.83L0.849748 383.663L48.122 394.855C73.9719 400.945 116.012 400.945 141.817 394.855C167.622 388.764 210.914 388.637 237.255 394.855C263.597 401.072 305.1 400.945 330.905 394.855C356.711 388.764 400.003 388.637 426.3 394.855C452.597 401.072 494.189 400.945 520.218 394.855C546.247 388.764 589.315 388.637 615.612 394.855C641.909 401.072 683.457 400.945 709.262 394.855C735.067 388.764 778.359 388.637 804.656 394.855C830.953 401.072 872.501 400.945 898.351 394.855C924.201 388.764 967.448 388.637 993.745 394.855C1020.04 401.072 1061.59 400.945 1087.4 394.855C1113.2 388.764 1156.49 388.637 1182.79 394.855C1209.09 401.072 1250.63 400.945 1276.71 394.855C1302.78 388.764 1345.76 388.637 1372.06 394.855L1419.33 406.021L1418.7 407.188Z" fill="#108080"/>
    <path d="M1418.7 385.871L1371.43 374.705C1345.63 368.589 1303.59 368.589 1277.78 374.705C1251.98 380.821 1208.68 380.922 1182.39 374.705C1156.09 368.487 1114.54 368.589 1088.47 374.705C1062.39 380.821 1019.42 380.922 993.119 374.705C966.822 368.487 925.274 368.589 899.424 374.705C873.574 380.821 830.327 380.922 804.03 374.705C777.733 368.487 736.185 368.589 710.38 374.705C684.575 380.821 641.283 380.922 614.986 374.705C588.689 368.487 547.141 368.589 521.068 374.705C494.994 380.821 451.971 380.922 425.673 374.705C399.376 368.487 357.829 368.589 331.755 374.705C305.682 380.821 262.658 380.922 236.361 374.705C210.064 368.487 168.516 368.589 142.711 374.705C116.906 380.821 73.5694 380.922 47.2722 374.705L0 363.538L0.849748 362.346L48.122 373.537C73.9719 379.628 116.012 379.628 141.817 373.537C167.622 367.447 210.914 367.32 237.255 373.537C263.597 379.755 305.1 379.628 330.905 373.537C356.711 367.447 400.003 367.32 426.3 373.537C452.597 379.755 494.189 379.628 520.218 373.537C546.247 367.447 589.315 367.32 615.612 373.537C641.909 379.755 683.457 379.628 709.262 373.537C735.067 367.447 778.359 367.32 804.656 373.537C830.953 379.755 872.501 379.628 898.351 373.537C924.201 367.447 967.448 367.32 993.745 373.537C1020.04 379.755 1061.59 379.628 1087.4 373.537C1113.2 367.447 1156.49 367.32 1182.79 373.537C1209.09 379.755 1250.63 379.628 1276.71 373.537C1302.78 367.447 1345.76 367.32 1372.06 373.537L1419.33 384.704L1418.7 385.871Z" fill="#108080"/>
    <path d="M1418.7 364.553L1371.43 353.387C1345.63 347.271 1303.59 347.271 1277.78 353.387C1251.98 359.503 1208.68 359.605 1182.39 353.387C1156.09 347.17 1114.54 347.271 1088.47 353.387C1062.39 359.503 1019.42 359.605 993.119 353.387C966.822 347.17 925.274 347.271 899.424 353.387C873.574 359.503 830.327 359.605 804.03 353.387C777.733 347.17 736.185 347.271 710.38 353.387C684.575 359.503 641.283 359.605 614.986 353.387C588.689 347.17 547.141 347.271 521.068 353.387C494.994 359.503 451.971 359.605 425.673 353.387C399.376 347.17 357.829 347.271 331.755 353.387C305.682 359.503 262.703 359.605 236.361 353.387C210.019 347.17 168.516 347.271 142.711 353.387C116.906 359.503 73.5694 359.605 47.2722 353.387L0 342.221L0.849748 341.028L48.7927 352.144C74.6426 358.26 116.682 358.26 142.487 352.144C168.293 346.028 211.585 345.926 237.926 352.144C264.268 358.361 305.771 358.26 331.576 352.144C357.382 346.028 400.673 345.926 426.97 352.144C453.267 358.361 494.86 358.234 520.889 352.144C546.917 346.053 589.986 345.926 616.283 352.144C642.58 358.361 684.128 358.26 709.933 352.144C735.738 346.028 779.03 345.926 805.327 352.144C831.624 358.361 873.172 358.234 899.022 352.144C924.872 346.053 968.119 345.926 994.416 352.144C1020.71 358.361 1062.26 358.26 1088.07 352.144C1113.87 346.028 1157.16 345.926 1183.46 352.144C1209.76 358.361 1251.3 358.26 1277.38 352.144C1303.45 346.028 1346.43 345.926 1372.73 352.144L1420 363.31L1418.7 364.553Z" fill="#108080"/>
    <path d="M1418.7 343.236L1371.43 332.07C1345.63 325.954 1303.59 325.954 1277.78 332.07C1251.98 338.186 1208.68 338.287 1182.39 332.07C1156.09 325.852 1114.54 325.954 1088.47 332.07C1062.39 338.186 1019.42 338.287 993.119 332.07C966.822 325.852 925.274 325.979 899.424 332.07C873.574 338.16 830.327 338.287 804.03 332.07C777.733 325.852 736.185 325.954 710.38 332.07C684.575 338.186 641.283 338.287 614.986 332.07C588.689 325.852 547.141 325.979 521.068 332.07C494.994 338.16 451.971 338.287 425.673 332.07C399.376 325.852 357.829 325.979 331.755 332.07C305.682 338.16 262.703 338.287 236.361 332.07C210.019 325.852 168.516 325.979 142.711 332.07C116.906 338.16 73.5694 338.287 47.2722 332.07L0 320.903L0.849748 319.736L48.122 330.902C73.9719 337.018 116.012 337.018 141.817 330.902C167.622 324.786 210.914 324.685 237.255 330.902C263.597 337.12 305.1 337.018 330.905 330.902C356.711 324.786 400.003 324.685 426.3 330.902C452.597 337.12 494.189 337.018 520.218 330.902C546.247 324.786 589.315 324.685 615.612 330.902C641.909 337.12 683.457 337.018 709.262 330.902C735.067 324.786 778.359 324.685 804.656 330.902C830.953 337.12 872.501 337.018 898.351 330.902C924.201 324.786 967.448 324.685 993.745 330.902C1020.04 337.12 1061.59 337.018 1087.4 330.902C1113.2 324.786 1156.49 324.685 1182.79 330.902C1209.09 337.12 1250.63 337.018 1276.71 330.902C1302.78 324.786 1345.76 324.685 1372.06 330.902L1419.33 342.069L1418.7 343.236Z" fill="#108080"/>
    <path d="M1418.7 321.944L1371.43 310.752C1345.63 304.662 1303.59 304.662 1277.78 310.752C1251.98 316.843 1208.68 316.97 1182.39 310.752C1156.09 304.535 1114.54 304.662 1088.47 310.752C1062.39 316.843 1019.42 316.97 993.119 310.752C966.822 304.535 925.274 304.662 899.424 310.752C873.574 316.843 830.327 316.97 804.03 310.752C777.733 304.535 736.185 304.662 710.38 310.752C684.575 316.843 641.283 316.97 614.986 310.752C588.689 304.535 547.141 304.662 521.068 310.752C494.994 316.843 451.971 316.97 425.673 310.752C399.376 304.535 357.829 304.662 331.755 310.752C305.682 316.843 262.703 316.97 236.361 310.752C210.019 304.535 168.516 304.662 142.711 310.752C116.906 316.843 73.5694 316.97 47.2722 310.752L0 299.586L0.849748 298.419L48.122 309.585C73.9719 315.701 116.012 315.701 141.817 309.585C167.622 303.469 210.914 303.367 237.255 309.585C263.597 315.802 305.1 315.701 330.905 309.585C356.711 303.469 400.003 303.367 426.3 309.585C452.597 315.802 494.189 315.701 520.218 309.585C546.247 303.469 589.315 303.367 615.612 309.585C641.909 315.802 683.457 315.701 709.262 309.585C735.067 303.469 778.359 303.367 804.656 309.585C830.953 315.802 872.501 315.701 898.351 309.585C924.201 303.469 967.448 303.367 993.745 309.585C1020.04 315.802 1061.59 315.701 1087.4 309.585C1113.2 303.469 1156.49 303.367 1182.79 309.585C1209.09 315.802 1250.63 315.701 1276.71 309.585C1302.78 303.469 1345.76 303.367 1372.06 309.585L1419.33 320.751L1418.7 321.944Z" fill="#108080"/>
    <path d="M1418.7 300.627L1371.43 289.435C1345.63 283.344 1303.59 283.344 1277.78 289.435C1251.98 295.526 1208.68 295.652 1182.39 289.435C1156.09 283.217 1114.54 283.344 1088.47 289.435C1062.39 295.526 1019.42 295.652 993.119 289.435C966.822 283.217 925.274 283.344 899.424 289.435C873.574 295.526 830.327 295.652 804.03 289.435C777.733 283.217 736.185 283.344 710.38 289.435C684.575 295.526 641.283 295.652 614.986 289.435C588.689 283.217 547.141 283.344 521.068 289.435C494.994 295.526 451.971 295.652 425.673 289.435C399.376 283.217 357.829 283.344 331.755 289.435C305.682 295.526 262.703 295.652 236.361 289.435C210.019 283.217 168.516 283.344 142.711 289.435C116.906 295.526 73.5694 295.652 47.2722 289.435L0 278.269L0.849748 277.101L48.122 288.268C73.9719 294.384 116.012 294.384 141.817 288.268C167.622 282.151 210.914 282.05 237.255 288.268C263.597 294.485 305.1 294.384 330.905 288.268C356.711 282.151 400.003 282.05 426.3 288.268C452.597 294.485 494.189 294.384 520.218 288.268C546.247 282.151 589.315 282.05 615.612 288.268C641.909 294.485 683.457 294.384 709.262 288.268C735.067 282.151 778.359 282.05 804.656 288.268C830.953 294.485 872.501 294.384 898.351 288.268C924.201 282.151 967.448 282.05 993.745 288.268C1020.04 294.485 1061.59 294.384 1087.4 288.268C1113.2 282.151 1156.49 282.05 1182.79 288.268C1209.09 294.485 1250.63 294.384 1276.71 288.268C1302.78 282.151 1345.76 282.05 1372.06 288.268L1419.33 299.459L1418.7 300.627Z" fill="#108080"/>
    <path d="M1418.7 279.309L1371.43 268.118C1345.63 262.027 1303.59 262.027 1277.78 268.118C1251.98 274.208 1208.68 274.335 1182.39 268.118C1156.09 261.9 1114.54 262.027 1088.47 268.118C1062.39 274.208 1019.42 274.335 993.119 268.118C966.822 261.9 925.274 262.027 899.424 268.118C873.574 274.208 830.327 274.335 804.03 268.118C777.733 261.9 736.185 262.027 710.38 268.118C684.575 274.208 641.283 274.335 614.986 268.118C588.689 261.9 547.141 262.027 521.068 268.118C494.994 274.208 451.971 274.335 425.673 268.118C399.376 261.9 357.829 262.027 331.755 268.118C305.682 274.208 262.658 274.335 236.361 268.118C210.064 261.9 168.516 262.027 142.711 268.118C116.906 274.208 73.5694 274.335 47.2722 268.118L0 256.951L0.849748 255.784L48.122 266.95C73.9719 273.066 116.012 273.066 141.817 266.95C167.622 260.834 210.914 260.732 237.255 266.95C263.597 273.168 305.1 273.066 330.905 266.95C356.711 260.834 400.003 260.732 426.3 266.95C452.597 273.168 494.189 273.066 520.218 266.95C546.247 260.834 589.315 260.732 615.612 266.95C641.909 273.168 683.457 273.066 709.262 266.95C735.067 260.834 778.359 260.732 804.656 266.95C830.953 273.168 872.501 273.066 898.351 266.95C924.201 260.834 967.448 260.732 993.745 266.95C1020.04 273.168 1061.59 273.066 1087.4 266.95C1113.2 260.834 1156.49 260.732 1182.79 266.95C1209.09 273.168 1250.63 273.066 1276.71 266.95C1302.78 260.834 1345.76 260.732 1372.06 266.95L1419.33 278.142L1418.7 279.309Z" fill="#108080"/>
    <path d="M1418.7 257.992L1371.43 246.825C1345.63 240.709 1303.59 240.709 1277.78 246.825C1251.98 252.941 1208.68 253.043 1182.39 246.825C1156.09 240.608 1114.54 240.709 1088.47 246.825C1062.39 252.941 1019.42 253.043 993.119 246.825C966.822 240.608 925.274 240.709 899.424 246.825C873.574 252.941 830.327 253.043 804.03 246.825C777.733 240.608 736.185 240.709 710.38 246.825C684.575 252.941 641.283 253.018 614.986 246.825C588.689 240.633 547.141 240.709 521.068 246.825C494.994 252.941 451.971 253.043 425.673 246.825C399.376 240.608 357.829 240.709 331.755 246.825C305.682 252.941 262.658 253.043 236.361 246.825C210.064 240.608 168.516 240.709 142.711 246.825C116.906 252.941 73.5694 253.043 47.2722 246.825L0 235.634L0.849748 234.466L48.122 245.633C73.9719 251.749 116.012 251.749 141.817 245.633C167.622 239.517 210.914 239.415 237.255 245.633C263.597 251.85 305.1 251.749 330.905 245.633C356.711 239.517 400.003 239.415 426.3 245.633C452.597 251.85 494.189 251.749 520.218 245.633C546.247 239.517 589.315 239.415 615.612 245.633C641.909 251.85 683.457 251.749 709.262 245.633C735.067 239.517 778.359 239.415 804.656 245.633C830.953 251.85 872.501 251.749 898.351 245.633C924.201 239.517 967.448 239.415 993.745 245.633C1020.04 251.85 1061.59 251.749 1087.4 245.633C1113.2 239.517 1156.49 239.415 1182.79 245.633C1209.09 251.85 1250.63 251.749 1276.71 245.633C1302.78 239.517 1345.76 239.415 1372.06 245.633L1419.33 256.824L1418.7 257.992Z" fill="#108080"/>
    <path d="M1418.7 236.674L1371.43 225.508C1345.63 219.392 1303.59 219.392 1277.78 225.508C1251.98 231.624 1208.68 231.725 1182.39 225.508C1156.09 219.29 1114.54 219.392 1088.47 225.508C1062.39 231.624 1019.42 231.725 993.119 225.508C966.822 219.29 925.274 219.392 899.424 225.508C873.574 231.624 830.327 231.725 804.03 225.508C777.733 219.29 736.185 219.392 710.38 225.508C684.575 231.624 641.283 231.725 614.986 225.508C588.689 219.29 547.141 219.392 521.068 225.508C494.994 231.624 451.971 231.725 425.673 225.508C399.376 219.29 357.829 219.392 331.755 225.508C305.682 231.624 262.658 231.725 236.361 225.508C210.064 219.29 168.516 219.392 142.711 225.508C116.906 231.624 73.5694 231.725 47.2722 225.508L0 214.316L0.849748 213.149L48.122 224.315C73.9719 230.431 116.012 230.431 141.817 224.315C167.622 218.199 210.914 218.098 237.255 224.315C263.597 230.533 305.1 230.431 330.905 224.315C356.711 218.199 400.003 218.098 426.3 224.315C452.597 230.533 494.189 230.431 520.218 224.315C546.247 218.199 589.315 218.098 615.612 224.315C641.909 230.533 683.457 230.431 709.262 224.315C735.067 218.199 778.359 218.098 804.656 224.315C830.953 230.533 872.501 230.431 898.351 224.315C924.201 218.199 967.448 218.098 993.745 224.315C1020.04 230.533 1061.59 230.431 1087.4 224.315C1113.2 218.199 1156.49 218.098 1182.79 224.315C1209.09 230.533 1250.63 230.431 1276.71 224.315C1302.78 218.199 1345.76 218.098 1372.06 224.315L1419.55 235.405L1418.7 236.674Z" fill="#108080"/>
    <path d="M1418.7 215.357L1371.43 204.191C1345.63 198.074 1303.59 198.074 1277.78 204.191C1251.98 210.307 1208.68 210.408 1182.39 204.191C1156.09 197.973 1114.54 198.074 1088.47 204.191C1062.39 210.307 1019.42 210.408 993.119 204.191C966.822 197.973 925.274 198.074 899.424 204.191C873.574 210.307 830.327 210.408 804.03 204.191C777.733 197.973 736.185 198.074 710.38 204.191C684.575 210.307 641.283 210.408 614.986 204.191C588.689 197.973 547.141 198.074 521.068 204.191C494.994 210.307 451.971 210.408 425.673 204.191C399.376 197.973 357.829 198.074 331.755 204.191C305.682 210.307 262.658 210.408 236.361 204.191C210.064 197.973 168.516 198.074 142.711 204.191C116.906 210.307 73.5694 210.408 47.2722 204.191L0 192.999L0.849748 191.832L48.122 203.023C73.9719 209.114 116.012 209.114 141.817 203.023C167.622 196.932 210.914 196.806 237.255 203.023C263.597 209.241 305.1 209.114 330.905 203.023C356.711 196.932 400.003 196.806 426.3 203.023C452.597 209.241 494.189 209.114 520.218 203.023C546.247 196.932 589.315 196.806 615.612 203.023C641.909 209.241 683.457 209.114 709.262 203.023C735.067 196.932 778.359 196.806 804.656 203.023C830.953 209.241 872.501 209.114 898.351 203.023C924.201 196.932 967.448 196.806 993.745 203.023C1020.04 209.241 1061.59 209.114 1087.4 203.023C1113.2 196.932 1156.49 196.806 1182.79 203.023C1209.09 209.241 1250.63 209.114 1276.71 203.023C1302.78 196.932 1345.76 196.806 1372.06 203.023L1419.33 214.189L1418.7 215.357Z" fill="#108080"/>
    <path d="M1418.7 194.039L1371.43 182.873C1345.63 176.757 1303.59 176.757 1277.78 182.873C1251.98 188.989 1208.68 189.091 1182.39 182.873C1156.09 176.656 1114.54 176.757 1088.47 182.873C1062.39 188.989 1019.42 189.091 993.119 182.873C966.822 176.656 925.274 176.757 899.424 182.873C873.574 188.989 830.327 189.091 804.03 182.873C777.733 176.656 736.185 176.757 710.38 182.873C684.575 188.989 641.283 189.091 614.986 182.873C588.689 176.656 547.141 176.757 521.068 182.873C494.994 188.989 451.971 189.091 425.673 182.873C399.376 176.656 357.829 176.757 331.755 182.873C305.682 188.989 262.658 189.091 236.361 182.873C210.064 176.656 168.516 176.757 142.711 182.873C116.906 188.989 73.5694 189.091 47.2722 182.873L0 171.682L0.849748 170.514L48.122 181.706C73.9719 187.797 116.012 187.797 141.817 181.706C167.622 175.615 210.914 175.488 237.255 181.706C263.597 187.923 305.1 187.797 330.905 181.706C356.711 175.615 400.003 175.488 426.3 181.706C452.597 187.923 494.189 187.797 520.218 181.706C546.247 175.615 589.315 175.488 615.612 181.706C641.909 187.923 683.457 187.797 709.262 181.706C735.067 175.615 778.359 175.488 804.656 181.706C830.953 187.923 872.501 187.797 898.351 181.706C924.201 175.615 967.448 175.488 993.745 181.706C1020.04 187.923 1061.59 187.797 1087.4 181.706C1113.2 175.615 1156.49 175.488 1182.79 181.706C1209.09 187.923 1250.63 187.797 1276.71 181.706C1302.78 175.615 1345.76 175.488 1372.06 181.706L1419.33 192.872L1418.7 194.039Z" fill="#108080"/>
    <path d="M1418.7 172.722L1371.43 161.556C1345.63 155.44 1303.59 155.44 1277.78 161.556C1251.98 167.672 1208.68 167.773 1182.39 161.556C1156.09 155.338 1114.54 155.44 1088.47 161.556C1062.39 167.672 1019.42 167.773 993.119 161.556C966.822 155.338 925.274 155.44 899.424 161.556C873.574 167.672 830.327 167.773 804.03 161.556C777.733 155.338 736.185 155.44 710.38 161.556C684.575 167.672 641.283 167.773 614.986 161.556C588.689 155.338 547.141 155.44 521.068 161.556C494.994 167.672 451.971 167.773 425.673 161.556C399.376 155.338 357.829 155.44 331.755 161.556C305.682 167.672 262.658 167.773 236.361 161.556C210.064 155.338 168.516 155.44 142.711 161.556C116.906 167.672 73.5694 167.773 47.2722 161.556L0 150.389L0.849748 149.197L48.122 160.388C73.9719 166.479 116.012 166.479 141.817 160.388C167.622 154.298 210.914 154.171 237.255 160.388C263.597 166.606 305.1 166.479 330.905 160.388C356.711 154.298 400.003 154.171 426.3 160.388C452.597 166.606 494.189 166.479 520.218 160.388C546.247 154.298 589.315 154.171 615.612 160.388C641.909 166.606 683.457 166.479 709.262 160.388C735.067 154.298 778.359 154.171 804.656 160.388C830.953 166.606 872.501 166.479 898.351 160.388C924.201 154.298 967.448 154.171 993.745 160.388C1020.04 166.606 1061.59 166.479 1087.4 160.388C1113.2 154.298 1156.49 154.171 1182.79 160.388C1209.09 166.606 1250.63 166.479 1276.71 160.388C1302.78 154.298 1345.76 154.171 1372.06 160.388L1419.33 171.555L1418.7 172.722Z" fill="#108080"/>
    <path d="M1418.7 151.405L1371.43 140.238C1345.63 134.122 1303.59 134.122 1277.78 140.238C1251.98 146.354 1208.68 146.456 1182.39 140.238C1156.09 134.021 1114.54 134.122 1088.47 140.238C1062.39 146.354 1019.42 146.456 993.119 140.238C966.822 134.021 925.274 134.122 899.424 140.238C873.574 146.354 830.327 146.456 804.03 140.238C777.733 134.021 736.185 134.122 710.38 140.238C684.575 146.354 641.283 146.456 614.986 140.238C588.689 134.021 547.141 134.122 521.068 140.238C494.994 146.354 451.971 146.456 425.673 140.238C399.376 134.021 357.829 134.122 331.755 140.238C305.682 146.354 262.703 146.456 236.361 140.238C210.019 134.021 168.516 134.122 142.711 140.238C116.906 146.354 73.5694 146.456 47.2722 140.238L0 129.072L0.849748 127.879L48.122 139.071C73.9719 145.187 116.012 145.187 141.817 139.071C167.622 132.955 210.914 132.853 237.255 139.071C263.597 145.288 305.1 145.187 330.905 139.071C356.711 132.955 400.003 132.853 426.3 139.071C452.597 145.288 494.189 145.162 520.218 139.071C546.247 132.98 589.315 132.853 615.612 139.071C641.909 145.288 683.457 145.187 709.262 139.071C735.067 132.955 778.359 132.853 804.656 139.071C830.953 145.288 872.501 145.187 898.351 139.071C924.201 132.955 967.448 132.853 993.745 139.071C1020.04 145.288 1061.59 145.187 1087.4 139.071C1113.2 132.955 1156.49 132.853 1182.79 139.071C1209.09 145.288 1250.63 145.187 1276.71 139.071C1302.78 132.955 1345.76 132.853 1372.06 139.071L1419.33 150.237L1418.7 151.405Z" fill="#108080"/>
    <path d="M1418.7 130.112L1371.43 118.921C1345.63 112.805 1303.59 112.805 1277.78 118.921C1251.98 125.037 1208.68 125.138 1182.39 118.921C1156.09 112.703 1114.54 112.805 1088.47 118.921C1062.39 125.037 1019.42 125.138 993.119 118.921C966.822 112.703 925.274 112.83 899.424 118.921C873.574 125.011 830.327 125.138 804.03 118.921C777.733 112.703 736.185 112.805 710.38 118.921C684.575 125.037 641.283 125.138 614.986 118.921C588.689 112.703 547.141 112.83 521.068 118.921C494.994 125.011 451.971 125.138 425.673 118.921C399.376 112.703 357.829 112.83 331.755 118.921C305.682 125.011 262.703 125.138 236.361 118.921C210.019 112.703 168.516 112.805 142.711 118.921C116.906 125.037 73.5694 125.138 47.2722 118.921L0 107.755L0.849748 106.587L48.122 117.753C73.9719 123.87 116.012 123.87 141.817 117.753C167.622 111.637 210.914 111.536 237.255 117.753C263.597 123.971 305.1 123.87 330.905 117.753C356.711 111.637 400.003 111.536 426.3 117.753C452.597 123.971 494.189 123.87 520.218 117.753C546.247 111.637 589.315 111.536 615.612 117.753C641.909 123.971 683.457 123.87 709.262 117.753C735.067 111.637 778.359 111.536 804.656 117.753C830.953 123.971 872.501 123.87 898.351 117.753C924.201 111.637 967.448 111.536 993.745 117.753C1020.04 123.971 1061.59 123.87 1087.4 117.753C1113.2 111.637 1156.49 111.536 1182.79 117.753C1209.09 123.971 1250.63 123.87 1276.71 117.753C1302.78 111.637 1345.76 111.536 1372.06 117.753L1419.33 128.92L1418.7 130.112Z" fill="#108080"/>
    <path d="M1418.7 108.795L1371.43 97.6035C1345.63 91.5128 1303.59 91.5128 1277.78 97.6035C1251.98 103.694 1208.68 103.821 1182.39 97.6035C1156.09 91.3859 1114.54 91.5128 1088.47 97.6035C1062.39 103.694 1019.42 103.821 993.119 97.6035C966.822 91.3859 925.274 91.5128 899.424 97.6035C873.574 103.694 830.327 103.821 804.03 97.6035C777.733 91.3859 736.185 91.5128 710.38 97.6035C684.575 103.694 641.283 103.821 614.986 97.6035C588.689 91.3859 547.141 91.5128 521.068 97.6035C494.994 103.694 451.971 103.821 425.673 97.6035C399.376 91.3859 357.829 91.5128 331.755 97.6035C305.682 103.694 262.703 103.821 236.361 97.6035C210.019 91.3859 168.516 91.5128 142.711 97.6035C116.906 103.694 73.5694 103.821 47.2722 97.6035L0 86.4373L0.849748 85.2697L48.122 96.436C73.9719 102.552 116.012 102.552 141.817 96.436C167.622 90.3199 210.914 90.2184 237.255 96.436C263.597 102.654 305.1 102.552 330.905 96.436C356.711 90.3199 400.003 90.2184 426.3 96.436C452.597 102.654 494.189 102.552 520.218 96.436C546.247 90.3199 589.315 90.2184 615.612 96.436C641.909 102.654 683.457 102.552 709.262 96.436C735.067 90.3199 778.359 90.2184 804.656 96.436C830.953 102.654 872.501 102.552 898.351 96.436C924.201 90.3199 967.448 90.2184 993.745 96.436C1020.04 102.654 1061.59 102.552 1087.4 96.436C1113.2 90.3199 1156.49 90.2184 1182.79 96.436C1209.09 102.654 1250.63 102.552 1276.71 96.436C1302.78 90.3199 1345.76 90.2184 1372.06 96.436L1419.33 107.602L1418.7 108.795Z" fill="#108080"/>
    <path d="M1418.7 87.4775L1371.43 76.2861C1345.63 70.1954 1303.59 70.1954 1277.78 76.2861C1251.98 82.3768 1208.68 82.5037 1182.39 76.2861C1156.09 70.0685 1114.54 70.1954 1088.47 76.2861C1062.39 82.3768 1019.42 82.5037 993.119 76.2861C966.822 70.0685 925.274 70.1954 899.424 76.2861C873.574 82.3768 830.327 82.5037 804.03 76.2861C777.733 70.0685 736.185 70.1954 710.38 76.2861C684.575 82.3768 641.283 82.5037 614.986 76.2861C588.689 70.0685 547.141 70.1954 521.068 76.2861C494.994 82.3768 451.971 82.5037 425.673 76.2861C399.376 70.0685 357.829 70.1954 331.755 76.2861C305.682 82.3768 262.703 82.5037 236.361 76.2861C210.019 70.0685 168.516 70.1954 142.711 76.2861C116.906 82.3768 73.5694 82.5037 47.2722 76.2861L0 65.1198L0.849748 63.9522L48.122 75.1185C73.9719 81.2346 116.012 81.2346 141.817 75.1185C167.622 69.0024 210.914 68.9009 237.255 75.1185C263.597 81.3361 305.1 81.2346 330.905 75.1185C356.711 69.0024 400.003 68.9009 426.3 75.1185C452.597 81.3361 494.189 81.2346 520.218 75.1185C546.247 69.0024 589.315 68.9009 615.612 75.1185C641.909 81.3361 683.457 81.2346 709.262 75.1185C735.067 69.0024 778.359 68.9009 804.656 75.1185C830.953 81.3361 872.501 81.2346 898.351 75.1185C924.201 69.0024 967.448 68.9009 993.745 75.1185C1020.04 81.3361 1061.59 81.2346 1087.4 75.1185C1113.2 69.0024 1156.49 68.9009 1182.79 75.1185C1209.09 81.3361 1250.63 81.2346 1276.71 75.1185C1302.78 69.0024 1345.76 68.9009 1372.06 75.1185L1419.33 86.3102L1418.7 87.4775Z" fill="#108080"/>
    <path d="M1418.7 66.1603L1371.43 54.9686C1345.63 48.8779 1303.59 48.8779 1277.78 54.9686C1251.98 61.0593 1208.68 61.1862 1182.39 54.9686C1156.09 48.751 1114.54 48.8779 1088.47 54.9686C1062.39 61.0593 1019.42 61.2115 993.119 54.9686C966.822 48.7256 925.274 48.8779 899.424 54.9686C873.574 61.0593 830.327 61.2115 804.03 54.9686C777.733 48.7256 736.185 48.8779 710.38 54.9686C684.575 61.0593 641.283 61.1862 614.986 54.9686C588.689 48.751 547.141 48.8779 521.068 54.9686C494.994 61.0593 451.971 61.2115 425.673 54.9686C399.376 48.7256 357.829 48.8779 331.755 54.9686C305.682 61.0593 262.658 61.2115 236.361 54.9686C210.064 48.7256 168.516 48.8779 142.711 54.9686C116.906 61.0593 73.5694 61.1862 47.2722 54.9686L0 43.8022L0.849748 42.635L48.122 53.801C73.9719 59.9171 116.012 59.9171 141.817 53.801C167.622 47.6849 210.914 47.5834 237.255 53.801C263.597 60.0186 305.1 59.9171 330.905 53.801C356.711 47.6849 400.003 47.5834 426.3 53.801C452.597 60.0186 494.189 59.9171 520.218 53.801C546.247 47.6849 589.315 47.5834 615.612 53.801C641.909 60.0186 683.457 59.9171 709.262 53.801C735.067 47.6849 778.359 47.5834 804.656 53.801C830.953 60.0186 872.501 59.9171 898.351 53.801C924.201 47.6849 967.448 47.5834 993.745 53.801C1020.04 60.0186 1061.59 59.9171 1087.4 53.801C1113.2 47.6849 1156.49 47.5834 1182.79 53.801C1209.09 60.0186 1250.63 59.9171 1276.71 53.801C1302.78 47.6849 1345.76 47.5834 1372.06 53.801L1419.33 64.9927L1418.7 66.1603Z" fill="#108080"/>
    <path d="M1418.7 44.8429L1371.43 33.6765C1345.63 27.5605 1303.59 27.5605 1277.78 33.6765C1251.98 39.7926 1208.68 39.8941 1182.39 33.6765C1156.09 27.459 1114.54 27.5605 1088.47 33.6765C1062.39 39.7926 1019.42 39.8941 993.119 33.6765C966.822 27.459 925.274 27.5605 899.424 33.6765C873.574 39.7926 830.327 39.8941 804.03 33.6765C777.733 27.459 736.185 27.5605 710.38 33.6765C684.575 39.7926 641.283 39.8941 614.986 33.6765C588.689 27.459 547.141 27.5605 521.068 33.6765C494.994 39.7926 451.971 39.8941 425.673 33.6765C399.376 27.459 357.829 27.5605 331.755 33.6765C305.682 39.7926 262.658 39.8941 236.361 33.6765C210.064 27.459 168.516 27.5605 142.711 33.6765C116.906 39.7926 73.5694 39.8941 47.2722 33.6765L0 22.4848L0.849748 21.3175L48.122 32.4839C73.9719 38.5999 116.012 38.5999 141.817 32.4839C167.622 26.3678 210.914 26.2663 237.255 32.4839C263.597 38.7014 305.1 38.5999 330.905 32.4839C356.711 26.3678 400.003 26.2663 426.3 32.4839C452.597 38.7014 494.189 38.5999 520.218 32.4839C546.247 26.3678 589.315 26.2663 615.612 32.4839C641.909 38.7014 683.457 38.5999 709.262 32.4839C735.067 26.3678 778.359 26.2663 804.656 32.4839C830.953 38.7014 872.501 38.5999 898.351 32.4839C924.201 26.3678 967.448 26.2663 993.745 32.4839C1020.04 38.7014 1061.59 38.5999 1087.4 32.4839C1113.2 26.3678 1156.49 26.2663 1182.79 32.4839C1209.09 38.7014 1250.63 38.5999 1276.71 32.4839C1302.78 26.3678 1345.76 26.2663 1372.06 32.4839L1419.33 43.6753L1418.7 44.8429Z" fill="#108080"/>
    <path d="M1418.7 23.5254L1371.43 12.359C1345.63 6.24295 1303.59 6.24295 1277.78 12.359C1251.98 18.4751 1208.68 18.5766 1182.39 12.359C1156.09 6.14144 1114.54 6.24295 1088.47 12.359C1062.39 18.4751 1019.42 18.5766 993.119 12.359C966.822 6.14144 925.274 6.24295 899.424 12.359C873.574 18.4751 830.327 18.5766 804.03 12.359C777.733 6.14144 736.185 6.24295 710.38 12.359C684.575 18.4751 641.283 18.5766 614.986 12.359C588.689 6.14144 547.141 6.24295 521.068 12.359C494.994 18.4751 451.971 18.5766 425.673 12.359C399.376 6.14144 357.829 6.24295 331.755 12.359C305.682 18.4751 262.658 18.5766 236.361 12.359C210.064 6.14144 168.516 6.24295 142.711 12.359C116.906 18.4751 73.5694 18.5766 47.2722 12.359L0 1.16728L0.849748 0L48.122 11.1663C73.9719 17.2824 116.012 17.2824 141.817 11.1663C167.622 5.05026 210.914 4.94875 237.255 11.1663C263.597 17.3839 305.1 17.2824 330.905 11.1663C356.711 5.05026 400.003 4.94875 426.3 11.1663C452.597 17.3839 494.189 17.2824 520.218 11.1663C546.247 5.05026 589.315 4.94875 615.612 11.1663C641.909 17.3839 683.457 17.2824 709.262 11.1663C735.067 5.05026 778.359 4.94875 804.656 11.1663C830.953 17.3839 872.501 17.2824 898.351 11.1663C924.201 5.05026 967.448 4.94875 993.745 11.1663C1020.04 17.3839 1061.59 17.2824 1087.4 11.1663C1113.2 5.05026 1156.49 4.94875 1182.79 11.1663C1209.09 17.3839 1250.63 17.2824 1276.71 11.1663C1302.78 5.05026 1345.76 4.94875 1372.06 11.1663L1419.33 22.3581L1418.7 23.5254Z" fill="#108080"/>
  </g>
</svg>