<svg width="164" height="164" viewBox="0 0 164 164" fill="none" xmlns="http://www.w3.org/2000/svg">
<g id="upload">
<g id="[component:lottie:https://assets1.lottiefiles.com/packages/lf20_t6eeo9z1.json]">
<path id="Vector (Stroke)" fill-rule="evenodd" clip-rule="evenodd" d="M120.096 53.1457C122.388 55.4284 122.396 59.137 120.113 61.429L70.7607 110.982C68.478 113.274 64.7696 113.282 62.4776 110.999L44.479 93.0751C42.1869 90.7925 42.1792 87.084 44.4618 84.7918C46.7444 82.4997 50.4529 82.492 52.745 84.7746L66.5936 98.5658L111.813 53.1625C114.096 50.8705 117.804 50.863 120.096 53.1457Z" fill="#108080"/>
<path id="Vector (Stroke)_2" fill-rule="evenodd" clip-rule="evenodd" d="M81.6586 16.7143C50.6114 16.7143 24.565 38.3937 17.879 67.4361L17.879 67.4362C16.7906 72.1635 16.2143 77.0909 16.2143 82.1586C16.2143 118.275 45.5421 147.603 81.6586 147.603C117.775 147.603 147.103 118.275 147.103 82.1586C147.103 46.0421 117.775 16.7143 81.6586 16.7143ZM6.46331 64.808C14.3455 30.5697 45.03 5 81.6586 5C124.245 5 158.817 39.5725 158.817 82.1586C158.817 124.745 124.245 159.317 81.6586 159.317C39.0725 159.317 4.5 124.745 4.5 82.1586C4.5 76.1999 5.17796 70.3909 6.46331 64.808Z" fill="#108080" fill-opacity="0.5"/>
</g>
</g>
</svg>
